<svg width="359" height="395" xmlns="http://www.w3.org/2000/svg" xmlns:xlink="http://www.w3.org/1999/xlink" xml:space="preserve" overflow="hidden"><g transform="translate(-512 -162)"><path d="M849.5 360.5C849.5 362.778 848.403 365.052 846.208 367.306 844.012 369.561 840.746 371.76 836.497 373.87 828 378.09 815.672 381.904 800.398 385.113 769.858 391.528 727.644 395.5 681 395.5 634.356 395.5 592.142 391.528 561.602 385.113 546.328 381.904 534 378.09 525.503 373.87 521.254 371.76 517.988 369.561 515.792 367.306 513.597 365.052 512.5 362.778 512.5 360.5 512.5 358.222 513.597 355.948 515.792 353.694 517.988 351.439 521.254 349.24 525.503 347.13 534 342.91 546.328 339.096 561.602 335.887 592.142 329.472 634.356 325.5 681 325.5 727.644 325.5 769.858 329.472 800.398 335.887 815.672 339.096 828 342.91 836.497 347.13 840.746 349.24 844.012 351.439 846.208 353.694 848.403 355.948 849.5 358.222 849.5 360.5Z" stroke="#000000" fill="none"/><path d="M849.5 385.5C849.5 387.778 848.403 390.052 846.208 392.306 844.012 394.561 840.746 396.76 836.497 398.87 828 403.09 815.672 406.904 800.398 410.113 769.858 416.528 727.644 420.5 681 420.5 634.356 420.5 592.142 416.528 561.602 410.113 546.328 406.904 534 403.09 525.503 398.87 521.254 396.76 517.988 394.561 515.792 392.306 513.597 390.052 512.5 387.778 512.5 385.5 512.5 383.222 513.597 380.948 515.792 378.694 517.988 376.439 521.254 374.24 525.503 372.13 534 367.91 546.328 364.096 561.602 360.887 592.142 354.472 634.356 350.5 681 350.5 727.644 350.5 769.858 354.472 800.398 360.887 815.672 364.096 828 367.91 836.497 372.13 840.746 374.24 844.012 376.439 846.208 378.694 848.403 380.948 849.5 383.222 849.5 385.5Z" stroke="#000000" fill="none"/><path d="M849.5 410.5C849.5 412.778 848.403 415.052 846.208 417.306 844.012 419.561 840.746 421.76 836.497 423.87 828 428.09 815.672 431.904 800.398 435.113 769.858 441.528 727.644 445.5 681 445.5 634.356 445.5 592.142 441.528 561.602 435.113 546.328 431.904 534 428.09 525.503 423.87 521.254 421.76 517.988 419.561 515.792 417.306 513.597 415.052 512.5 412.778 512.5 410.5 512.5 408.222 513.597 405.948 515.792 403.694 517.988 401.439 521.254 399.24 525.503 397.13 534 392.91 546.328 389.096 561.602 385.887 592.142 379.472 634.356 375.5 681 375.5 727.644 375.5 769.858 379.472 800.398 385.887 815.672 389.096 828 392.91 836.497 397.13 840.746 399.24 844.012 401.439 846.208 403.694 848.403 405.948 849.5 408.222 849.5 410.5Z" stroke="#000000" fill="none"/><path d="M764.343 228.629 764.511 229.535 765.179 228.901 812.311 184.177 784.341 242.823 783.945 243.654 784.858 243.534 849.276 235.055 792.177 266.061 791.368 266.5 792.177 266.939 849.276 297.945 784.858 289.466 783.945 289.346 784.341 290.177 812.311 348.823 765.179 304.099 764.511 303.465 764.343 304.371 752.5 368.257 740.657 304.371 740.489 303.465 739.821 304.099 692.689 348.823 720.659 290.177 721.055 289.346 720.142 289.466 655.724 297.945 712.823 266.939 713.632 266.5 712.823 266.061 655.724 235.055 720.142 243.534 721.055 243.654 720.659 242.823 692.689 184.177 739.821 228.901 740.489 229.535 740.657 228.629 752.5 164.743 764.343 228.629Z" stroke="#000000" fill="none"/><path d="M789 339 806.789 384.06 853.11 369.874 828.972 411.877 868.944 439.247 821.055 446.563 824.578 494.879 789 462 753.422 494.879 756.945 446.563 709.056 439.247 749.028 411.877 724.89 369.874 771.211 384.06 789 339Z" fill="#D9D9D9"/><path d="M624.194 468.102 647.134 426 670.258 468.102 712.269 491.134 670.258 514.166 647.134 556.269 624.194 514.166 582 491.134 624.194 468.102Z" fill="#B9FF66"/><path d="M726.5 348.5C726.5 382.742 698.742 410.5 664.5 410.5 630.258 410.5 602.5 382.742 602.5 348.5 602.5 314.258 630.258 286.5 664.5 286.5 698.742 286.5 726.5 314.258 726.5 348.5Z" stroke="#000000"/><path d="M654 335C654 346.046 649.523 355 644 355 638.477 355 634 346.046 634 335 634 323.954 638.477 315 644 315 649.523 315 654 323.954 654 335Z" fill="#FFFFFF"/><path d="M695 335C695 346.046 690.523 355 685 355 679.477 355 675 346.046 675 335 675 323.954 679.477 315 685 315 690.523 315 695 323.954 695 335Z" fill="#FFFFFF"/></g></svg>